<svg width="40" height="43" viewBox="0 0 40 43" fill="none">
    <path d="M29.333 1.5H2.66634C1.92996 1.5 1.33301 2.09695 1.33301 2.83333V33.0556C1.33301 33.7919 1.92996 34.3889 2.66634 34.3889H29.333C30.0694 34.3889 30.6663 33.7919 30.6663 33.0556V2.83333C30.6663 2.09695 30.0694 1.5 29.333 1.5Z" stroke="currentColor" stroke-width="2.5" stroke-linecap="round" stroke-linejoin="round"/>
    <path d="M38.6667 11.2778V40.1667C38.6621 40.5189 38.5201 40.8554 38.2711 41.1044C38.022 41.3535 37.6855 41.4954 37.3333 41.5001H12" stroke="currentColor" stroke-width="2.5" stroke-linecap="round" stroke-linejoin="round"/>
    <path d="M30.6663 27.2778H1.33301" stroke="currentColor" stroke-width="2.5" stroke-linecap="round" stroke-linejoin="round"/>
    <path d="M7.55566 27.2778L16.8001 14.0689C17.0316 13.7366 17.3357 13.4614 17.6895 13.2642C18.0432 13.0669 18.4372 12.9528 18.8415 12.9306C19.2459 12.9083 19.6501 12.9784 20.0233 13.1356C20.3965 13.2928 20.7291 13.533 20.9957 13.8378L30.6668 25.0556" stroke="currentColor" stroke-width="2.5" stroke-linecap="round" stroke-linejoin="round"/>
    <path d="M9.33268 6.8335C9.8601 6.8335 10.3757 6.98989 10.8142 7.28291C11.2527 7.57593 11.5945 7.9924 11.7964 8.47967C11.9982 8.96694 12.051 9.50312 11.9481 10.0204C11.8452 10.5377 11.5912 11.0128 11.2183 11.3858C10.8454 11.7587 10.3702 12.0127 9.85292 12.1156C9.33564 12.2185 8.79946 12.1657 8.31219 11.9638C7.82492 11.762 7.40845 11.4202 7.11543 10.9817C6.82241 10.5432 6.66602 10.0276 6.66602 9.50016C6.66602 8.79292 6.94697 8.11464 7.44706 7.61454C7.94716 7.11445 8.62544 6.8335 9.33268 6.8335" stroke="currentColor" stroke-width="2.5" stroke-linecap="round" stroke-linejoin="round"/>
</svg>
